<svg xmlns="http://www.w3.org/2000/svg" width="29.25" height="27" viewBox="0 0 29.25 27">
  <g id="Icon_ionic-md-chatboxes" data-name="Icon ionic-md-chatboxes" transform="translate(-3.375 -4.5)">
    <path id="Path_4" data-name="Path 4" d="M27.531,4.5H4.05a.677.677,0,0,0-.675.574V20.136a.705.705,0,0,0,.675.606H8.086v6.25l6.337-6.25H27.531a.568.568,0,0,0,.524-.606V5.074A.538.538,0,0,0,27.531,4.5Z" fill="#928585"/>
    <path id="Path_5" data-name="Path 5" d="M32.09,8.93H29.813V20.642c0,1.124-.486,1.858-1.768,1.858H15.335L12.6,25.242h9.119L28.055,31.5V25.242H32.09a.58.58,0,0,0,.535-.61V9.57A.608.608,0,0,0,32.09,8.93Z" fill="#928585"/>
  </g>
</svg>
